HIERARCHY
ROOT Hips
{
  OFFSET 17.2383 39.8254 -4.08243
  CHANNELS 6 Xposition Yposition Zposition Zrotation Xrotation Yrotation
  JOINT LeftHip
  {
    OFFSET 3.43 1.42109e-014 2.88658e-015
    CHANNELS 3 Zrotation Xrotation Yrotation
    JOINT LeftKnee
    {
      OFFSET 5.32907e-014 -18.47 2.24487e-013
      CHANNELS 3 Zrotation Xrotation Yrotation
      JOINT LeftAnkle
      {
        OFFSET -2.4194e-012 -17.95 2.75779e-012
        CHANNELS 3 Zrotation Xrotation Yrotation
        End Site
        {
          OFFSET 0 -3.12 0
        }
      }
    }
  }
  JOINT RightHip
  {
    OFFSET -3.43 0 1.33227e-015
    CHANNELS 3 Zrotation Xrotation Yrotation
    JOINT RightKnee
    {
      OFFSET 1.98952e-013 -18.47 -3.55271e-014
      CHANNELS 3 Zrotation Xrotation Yrotation
      JOINT RightAnkle
      {
        OFFSET 3.48344e-012 -17.95 -4.13891e-013
        CHANNELS 3 Zrotation Xrotation Yrotation
        End Site
        {
          OFFSET 0 -3.12 0
        }
      }
    }
  }
  JOINT Chest
  {
    OFFSET 3.55271e-014 4.57 2.22045e-015
    CHANNELS 3 Zrotation Xrotation Yrotation
    JOINT Chest2
    {
      OFFSET -7.10543e-015 6.57 -4.44089e-016
      CHANNELS 3 Zrotation Xrotation Yrotation
      JOINT LeftCollar
      {
        OFFSET 1.06 4.19 1.76
        CHANNELS 3 Zrotation Xrotation Yrotation
        JOINT LeftShoulder
        {
          OFFSET 5.81 -7.10543e-014 -4.88498e-015
          CHANNELS 3 Zrotation Xrotation Yrotation
          JOINT LeftElbow
          {
            OFFSET -2.20268e-013 -12.08 8.52651e-014
            CHANNELS 3 Zrotation Xrotation Yrotation
            JOINT LeftWrist
            {
              OFFSET 3.83693e-013 -9.82 1.58096e-013
              CHANNELS 3 Zrotation Xrotation Yrotation
              End Site
              {
                OFFSET 0 -7.37 0
              }
            }
          }
        }
      }
      JOINT RightCollar
      {
        OFFSET -1.06 4.19 1.76
        CHANNELS 3 Zrotation Xrotation Yrotation
        JOINT RightShoulder
        {
          OFFSET -6.06 -3.55271e-014 -1.31006e-014
          CHANNELS 3 Zrotation Xrotation Yrotation
          JOINT RightElbow
          {
            OFFSET -5.82645e-013 -11.08 3.9968e-014
            CHANNELS 3 Zrotation Xrotation Yrotation
            JOINT RightWrist
            {
              OFFSET -1.10845e-012 -9.82 -1.72307e-013
              CHANNELS 3 Zrotation Xrotation Yrotation
              End Site
              {
                OFFSET 0 -7.14001 0
              }
            }
          }
        }
      }
      JOINT Neck
      {
        OFFSET -1.42109e-014 4.05 -5.9952e-015
        CHANNELS 3 Zrotation Xrotation Yrotation
        JOINT Head
        {
          OFFSET -6.39488e-014 5.19 -1.77636e-014
          CHANNELS 3 Zrotation Xrotation Yrotation
          End Site
          {
            OFFSET 0 4.14001 0
          }
        }
      }
    }
  }
}
MOTION
Frames:	19
Frame Time:	0.0333333
-8.66418 38.094 0.900906 1.39172 -8.15302 -0.653905 -0.395283 -4.7317 6.04849 0.367847 42.9532 -2.53933 1.30712 -20.9681 0.241895 -6.55766 -1.09548 -6.87748 -5.58849 36.6093 -18.0793 12.6899 -22.1058 2.48861 0.072359 5.80762 0.307016 -0.325885 6.41541 1.33629 7.92366 0.0782284 3.06474 50.9176 -29.7055 -34.1515 -23.9336 -61.4389 -21.2972 -21.3981 11.7798 -10.3357 -7.75414 0.289596 -0.166522 -50.7686 2.62853 43.1754 12.0767 -77.8697 11.8147 -3.14653 1.83702 10.5847 -4.6723 7.15276 3.00472 1.22663 -14.2368 0.626282 
-8.68469 36.7603 0.929202 1.27494 -10.3581 -1.41113 -0.444606 -2.83216 6.44421 1.3899 45.4418 -0.0967778 -1.08434 -31.2716 -0.303493 -6.72824 -3.53375 -6.34583 -7.27299 46.6876 -19.6752 19.0206 -25.7745 4.39012 -0.178789 6.81728 0.365423 -0.533198 7.66079 1.14563 -1.92521 0.0194815 -0.321967 62.8571 -33.135 -24.5058 -24.5451 -53.1146 -20.0656 -14.4306 11.4898 -13.7322 3.84125 0.337371 0.669755 -63.0789 -7.6189 35.135 16.8399 -70.5319 15.9273 1.65111 0.495041 13.3262 -4.0193 6.45148 2.33751 2.34975 -10.0967 0.262148 
-8.72321 36.207 0.99355 1.36188 -10.2464 -2.51281 -0.219161 -4.15193 6.93647 0.724024 48.5583 1.03659 -1.39042 -34.1225 -0.426738 -6.82008 -6.16413 -5.87574 -8.42636 51.3132 -19.8123 20.4984 -27.2883 5.02633 -0.71583 6.80746 1.00802 -1.15135 7.36236 2.13295 -10.8768 0.611723 -4.38475 67.4111 -30.8043 -13.8288 -20.8659 -46.9169 -15.5573 -2.15598 11.9733 -21.2013 18.1346 0.779056 2.41069 -73.1304 -8.84779 23.9783 16.6457 -63.3046 14.9553 -3.2058 -1.72216 15.226 -1.29004 3.43509 1.08697 -0.75098 -2.15631 0.300748 
-8.74993 36.2932 1.20811 1.11029 -10.851 -2.94077 0.0288166 -2.74279 7.04354 0.199513 47.6827 0.744827 -0.779967 -34.0482 -0.238822 -6.94477 -5.23088 -6.36805 -8.09236 50.5866 -19.736 20.2203 -26.9968 4.90187 -0.349862 6.86391 1.32376 -0.925521 7.27895 2.84805 -15.2156 0.802266 -4.49811 60.5409 -27.9729 -9.16574 -15.5179 -45.2293 -11.1512 8.83883 10.154 -14.2944 16.6717 0.786839 2.61837 -63.381 -5.66446 16.5871 12.3172 -59.1441 10.6166 -12.0839 4.21092 6.98487 -1.86083 4.1781 0.686296 -0.000618974 -2.12621 -0.662051 
-8.75426 37.2946 1.47385 1.33158 -10.4759 -3.24731 -0.743992 -0.919038 6.7557 0.244038 42.5518 2.20434 -1.42624 -28.0774 -0.356644 -7.17437 -2.94494 -7.31559 -6.52125 44.5241 -19.6601 15.2051 -24.8445 3.36808 -0.379504 6.253 1.32981 -0.816309 6.29496 2.78277 -11.6353 0.6171 -4.21911 44.0224 -21.571 -9.15267 -10.5828 -44.5531 -7.46762 12.6138 12.2225 -6.70348 16.7133 0.740372 2.37104 -54.7846 -1.11094 14.2291 10.0548 -57.9647 8.5483 -16.2396 8.90009 2.29312 -2.21329 5.56021 0.259358 1.58511 -1.41001 -1.23754 
-8.76837 38.8302 1.76119 1.366 -9.93967 -3.2663 -0.320044 -0.288571 7.21818 -1.17582 38.5372 3.7433 -1.04328 -16.311 -0.149516 -6.99602 3.02131 -8.49702 -3.78162 30.9461 -18.3799 8.62205 -19.6411 1.49521 -0.513067 5.52868 1.29213 -0.880557 5.14541 2.69302 -15.548 0.774738 -4.27223 42.6445 -13.3233 -12.7385 -12.369 -46.7917 -9.08131 7.77929 17.6911 1.28771 20.9269 0.933327 2.81341 -53.2876 5.74908 15.056 10.4397 -57.3113 8.81458 -13.1522 7.47254 3.72064 -1.31268 6.5336 -0.229809 1.30563 2.77851 -1.51675 
-8.79379 40.5479 2.00662 1.60707 -9.23951 -3.50876 -0.0187267 1.59611 7.35928 -2.62186 32.0961 1.22375 -1.51077 -2.47884 -0.0326878 -7.22075 7.75873 -9.2857 -2.13492 18.0948 -14.0138 4.60811 -6.95827 0.280311 -0.853437 4.84836 1.14291 -1.15269 4.03206 2.24487 -15.0524 0.575142 -3.25225 38.5913 -5.72529 -16.9075 -13.6117 -46.6576 -9.98743 -4.54952 17.5235 -6.45197 20.0907 0.817331 2.38932 -47.4685 11.5275 17.9226 11.353 -54.882 9.3266 -8.55304 3.34091 10.1976 -0.782405 8.10413 -0.324818 1.98984 5.79679 -1.6815 
-8.76224 42.0311 2.15242 2.00344 -8.18166 -3.176 0.0612993 1.3142 6.05069 -2.39378 26.952 1.23509 -9.86179 11.6089 1.00495 -8.34755 6.90903 -9.70446 -1.18054 14.745 -8.97673 4.22391 8.04524 -0.297174 -0.92286 4.13354 0.693469 -1.22737 2.80805 1.41764 -14.6725 0.415815 -2.39793 35.5564 0.394162 -21.954 -15.805 -45.9489 -11.4996 -12.807 16.4775 -17.7173 21.0868 0.864802 2.4999 -45.3329 16.4167 19.6899 12.6146 -51.2457 9.89971 -5.7195 2.47024 18.0615 -1.09012 9.91699 -0.112703 2.68367 8.49381 -1.68497 
-8.85177 42.9236 2.2567 1.75738 -7.08766 -4.01373 0.900072 1.29966 5.75589 -1.95188 21.714 4.05349 -14.2157 17.7152 2.2265 -7.95662 2.31483 -8.63299 -1.49222 18.2507 -8.12702 0.515143 15.4987 -0.0701022 -0.895608 3.48745 0.925763 -0.982193 1.62102 1.67047 -15.44 0.371457 -2.06013 34.7536 6.4455 -25.6812 -18.0442 -47.2065 -13.4445 0.943121 12.6127 -21.1622 20.9895 0.849202 2.44202 -41.6391 21.2904 19.1042 12.2999 -47.9794 9.20075 -7.92467 4.69995 18.2309 -1.16376 11.3333 0.0845876 3.05288 11.5552 -1.74678 
-8.86184 43.2981 2.37459 1.34624 -6.94179 -3.54304 0.867755 1.21096 4.96376 -0.483811 20.5362 4.52272 -10.7008 9.44771 0.88681 -6.77441 0.0270371 -7.98437 -1.96518 21.4767 -11.8119 -5.44275 15.8416 0.757815 -0.497075 3.49361 0.565696 -0.42157 1.64574 1.11768 -16.9767 0.29466 -1.51746 32.7964 12.1494 -20.4816 -14.9496 -50.1955 -11.5919 11.7998 15.4461 -6.05297 21.4476 0.84622 2.38555 -39.2214 26.0552 16.0611 10.4515 -46.6748 7.643 -10.6333 8.37074 14.2418 -1.50509 12.325 0.355206 2.49339 13.9192 -1.57003 
-8.82347 43.3098 2.49098 1.49916 -7.7989 -2.7312 -0.359737 3.26081 2.72057 0.143963 16.9258 3.52347 -7.80749 1.94805 0.132945 -7.23543 0.468824 -9.37483 -2.59554 22.657 -11.5088 -7.14477 13.5472 0.84971 0.149156 4.20431 0.313137 -1.04435 2.92335 1.01487 -18.2132 0.328137 -1.59752 31.842 15.1595 -15.2132 -11.9538 -53.5343 -9.66265 18.7886 17.2932 1.22385 22.8878 0.909177 2.51125 -38.7342 30.4137 13.9272 9.4473 -46.3385 6.86406 -11.9899 10.7665 13.02 -1.08069 12.9416 -0.0810363 0.535733 14.4233 -1.14826 
-8.91181 42.8233 2.48308 1.11966 -7.63839 -2.14758 0.361406 2.63123 2.88662 0.473329 16.6495 -2.30527 -9.69618 -0.514989 -0.0436804 -6.02474 0.446328 -8.21202 -2.58928 22.7621 -10.9347 -7.30741 8.77349 0.561331 0.399108 4.55267 0.456008 -0.459488 3.48024 1.21702 -19.4836 0.416627 -1.92002 33.37 15.5805 -14.1582 -11.3949 -55.6282 -9.44476 19.8567 18.5248 1.1269 22.1187 0.84986 2.33944 -37.668 33.102 13.7643 9.4793 -45.0619 6.74074 -11.0468 10.3057 14.7986 -1.32626 13.2708 -0.30178 0.973344 13.3638 -1.59293 
-8.92682 41.8641 2.4375 1.52342 -7.46919 -1.78336 0.123611 1.29264 2.97375 -0.0413316 18.7396 -6.95427 -14.1648 2.71412 0.337278 -6.17242 2.75002 -7.65096 -2.65005 19.6696 -9.26484 -0.333755 2.81856 0.0082109 0.0415938 5.02894 0.679452 -0.749671 4.15379 1.52555 -17.193 0.312896 -1.59526 33.5868 15.0579 -14.5502 -11.2847 -58.2646 -9.63176 16.0047 18.8941 1.65011 21.6528 0.774792 2.06506 -38.192 34.1304 15.5268 10.5721 -43.796 7.36028 -6.29727 7.53643 18.9723 -1.17778 12.9836 -0.390031 2.41088 11.9025 -2.11717 
-8.97079 40.4066 2.31842 1.63668 -7.07572 -1.60718 0.546497 -1.60905 4.61671 -1.14422 25.9988 -8.20147 -9.04238 -9.56191 -0.757846 -5.50894 4.30151 -7.68128 -2.98851 18.5538 -14.9314 5.159 -7.43497 0.335424 -0.149604 5.47038 0.591014 -0.644915 4.78389 1.36242 -14.8297 0.190158 -1.08786 33.9295 13.891 -15.234 -11.2627 -59.5136 -9.73776 10.8444 14.4003 -1.74967 20.6547 0.702947 1.83284 -39.9447 34.1097 18.6303 12.2722 -44.1322 8.61302 0.157147 6.68939 24.6618 -1.62412 11.8795 0.00353692 3.53848 11.0518 -2.23233 
-8.98762 38.6169 2.35563 2.17499 -8.78588 -1.48493 0.0616379 -2.12651 5.65546 -1.81418 33.8746 -10.5964 0.653036 -23.584 0.136332 -6.49841 -0.534824 -7.4312 -4.75215 35.1589 -18.4654 7.99828 -21.6039 1.52843 -0.416812 6.79659 0.350342 -1.17943 6.95338 1.01972 -14.1832 0.224407 -1.3279 36.7779 12.7105 -15.9163 -11.8688 -60.8504 -10.4007 6.8892 10.4676 -4.94925 19.8844 0.684034 1.80578 -42.2213 33.5977 21.2475 13.5804 -46.0456 9.86502 6.19045 7.03603 27.4729 -1.73278 10.6708 0.29838 2.92599 9.13557 -1.78509 
-8.92948 37.2267 2.30538 2.61609 -10.1996 -1.31083 -0.951116 -5.13362 6.14906 -0.422526 42.2104 -6.83405 3.58027 -26.6099 0.846926 -7.87934 -3.86808 -7.57295 -6.58712 45.7692 -16.6826 13.7329 -26.5602 3.25601 -0.394032 7.8024 -0.189702 -0.979171 8.89666 0.168402 -15.9845 0.351664 -1.89868 41.152 11.1617 -17.302 -13.2108 -59.4835 -11.4327 6.31549 8.7444 -6.97508 19.222 0.762045 2.22018 -44.4511 32.1121 22.8839 14.4667 -47.0999 10.7023 8.42879 7.05119 27.5577 -2.76851 10.9099 1.13399 2.02475 4.67728 -0.942279 
-8.95325 36.9435 2.22048 3.26564 -9.09878 -1.06616 -2.22507 -7.74271 4.92774 0.877592 44.4746 -5.86372 2.33465 -27.5809 0.573106 -8.31335 -5.67515 -7.19676 -6.97161 46.3257 -17.1183 17.7234 -25.9539 4.11538 -0.777012 7.40813 -0.114722 -1.30287 7.9433 0.236488 -15.2975 0.368161 -2.05649 41.7914 7.8549 -18.4483 -14.0713 -53.2382 -11.3542 9.00895 12.6653 -12.6481 20.9593 0.854389 2.46746 -46.024 31.2835 22.4032 13.9368 -46.6296 10.2258 -0.101269 4.11491 27.1978 -2.0487 11.5777 1.24645 1.72931 6.0922 -0.430322 
-9.05458 37.559 2.41815 2.9444 -11.4669 -2.54857 -2.06614 -2.65852 5.39823 0.984603 41.1145 -6.03937 1.86595 -24.6101 0.407049 -6.99205 -2.18756 -6.33153 -7.52452 43.945 -17.7046 12.9656 -25.3437 2.92711 -0.927425 8.28439 0.512991 -1.29328 9.38622 1.24242 -13.902 0.404443 -2.42927 39.6812 6.56737 -17.617 -13.4195 -49.7505 -10.3206 12.6534 19.6611 -21.009 19.8397 0.78417 2.26372 -43.6276 30.5555 20.7814 13.0041 -49.2782 9.92785 -13.7599 2.31369 25.0086 -1.40357 13.5262 1.68942 1.8829 8.38321 0.0921102 
-9.14401 38.8846 2.45673 3.26513 -10.6792 -3.58563 -1.46389 1.00789 6.19273 -2.37715 30.3188 -3.81311 -2.4768 -19.4693 -0.424973 -7.22632 1.05456 -7.71126 -5.39808 34.1499 -19.3946 7.40476 -20.5008 1.34086 -1.25173 7.24635 0.206761 -1.91245 7.72881 0.641307 -12.9521 0.353286 -2.23633 37.2917 9.57291 -16.2641 -12.0955 -48.8303 -9.1638 14.9968 25.3764 -21.8137 18.2203 0.730384 2.16472 -41.1919 29.3239 21.1774 12.7965 -51.3814 10.063 -23.0054 1.14425 21.1675 -0.812234 16.4837 2.79392 0.213218 12.5074 2.0255 
